<svg xmlns="http://www.w3.org/2000/svg" version="1.1" xmlns:xlink="http://www.w3.org/1999/xlink" xmlns:svgjs="http://svgjs.com/svgjs" width="1440" height="560" preserveAspectRatio="none" viewBox="0 0 1440 560"><g mask="url(&quot;#SvgjsMask1059&quot;)" fill="none"><path d="M1030.667,207.973C1074.871,211.659,1124.709,206.508,1148.592,169.13C1173.78,129.709,1163.519,78.338,1138.923,38.545C1115.655,0.901,1074.872,-23.725,1030.667,-21.654C989.501,-19.725,957.325,11.185,938.665,47.929C921.827,81.085,923.974,119.706,942.507,151.946C961.106,184.3,993.477,204.872,1030.667,207.973" fill="rgba(28, 83, 142, 0.4)" class="triangle-float2"></path><path d="M508.78910698249365 235.83570076537356L450.9311411843589 92.6322102530007 307.72765067198605 150.49017605113542 365.5856164701208 293.6936665635083z" fill="rgba(28, 83, 142, 0.4)" class="triangle-float3"></path><path d="M1160.4268906001748 288.1938796025588L1256.809639752702 234.76804934341132 1203.3838094935545 138.38530019088415 1107.0010603410274 191.8111304500316z" fill="rgba(28, 83, 142, 0.4)" class="triangle-float2"></path><path d="M635.198,489.083C663.203,488.876,680.969,461.85,693.702,436.906C705.038,414.698,709.63,388.944,697.405,367.213C684.961,345.093,660.548,334.147,635.198,332.909C607.105,331.537,575.461,336.162,561.489,360.573C547.573,384.887,561.235,413.483,575.173,437.784C589.208,462.254,606.99,489.292,635.198,489.083" fill="rgba(28, 83, 142, 0.4)" class="triangle-float2"></path><path d="M576.37 98.32 a123.89 123.89 0 1 0 247.78 0 a123.89 123.89 0 1 0 -247.78 0z" fill="rgba(28, 83, 142, 0.4)" class="triangle-float2"></path><path d="M926.188300456991 541.5082751669793L954.5358466254369 454.26349900503794 867.2910704634955 425.915952836592 838.9435242950497 513.1607289985334z" fill="rgba(28, 83, 142, 0.4)" class="triangle-float2"></path><path d="M78.83 290.25 a113.2 113.2 0 1 0 226.4 0 a113.2 113.2 0 1 0 -226.4 0z" fill="rgba(28, 83, 142, 0.4)" class="triangle-float2"></path><path d="M691.6769101059256 245.14572702055182L691.6769101059256 129.94518633044663 576.4763694158204 129.94518633044663 576.4763694158204 245.14572702055182z" fill="rgba(28, 83, 142, 0.4)" class="triangle-float3"></path><path d="M1099.81322249444-91.31773778637555L1065.5155506167307 57.24180049603581 1214.0750888991422 91.53947237374496 1248.3727607768512-57.02006590866639z" fill="rgba(28, 83, 142, 0.4)" class="triangle-float3"></path><path d="M132.806,142.855C150.658,142.756,165.259,130.408,174.3,115.015C183.48,99.385,186.933,80.7,178.838,64.482C169.838,46.45,152.959,31.858,132.806,31.877C112.679,31.896,96.014,46.611,86.927,64.57C78.695,80.84,81.285,99.75,90.504,115.482C99.606,131.012,114.805,142.955,132.806,142.855" fill="rgba(28, 83, 142, 0.4)" class="triangle-float1"></path><path d="M691.94 87.16 a114.46 114.46 0 1 0 228.92 0 a114.46 114.46 0 1 0 -228.92 0z" fill="rgba(28, 83, 142, 0.4)" class="triangle-float2"></path></g><defs><mask id="SvgjsMask1059"><rect width="1440" height="560" fill="#ffffff"></rect></mask><style>
            @keyframes float1 {
                0%{transform: translate(0, 0)}
                50%{transform: translate(-10px, 0)}
                100%{transform: translate(0, 0)}
            }

            .triangle-float1 {
                animation: float1 5s infinite;
            }

            @keyframes float2 {
                0%{transform: translate(0, 0)}
                50%{transform: translate(-5px, -5px)}
                100%{transform: translate(0, 0)}
            }

            .triangle-float2 {
                animation: float2 4s infinite;
            }

            @keyframes float3 {
                0%{transform: translate(0, 0)}
                50%{transform: translate(0, -10px)}
                100%{transform: translate(0, 0)}
            }

            .triangle-float3 {
                animation: float3 6s infinite;
            }
        </style></defs></svg>